<svg xmlns="http://www.w3.org/2000/svg" aria-hidden="true" style="position:absolute;width:0;height:0;overflow:hidden">
  <defs>
    <symbol id="icon-check" viewBox="0 0 32 32">
      <path d="M26.898 10.44 13.33 24.008a.64.64 0 0 1-.908 0l-6.899-6.899a.64.64 0 0 1 0-.908l.896-.896a.64.64 0 0 1 .908 0l5.542 5.542L25.093 8.623a.654.654 0 0 1 .909 0l.896.909a.64.64 0 0 1 0 .908z"/>
    </symbol>
    <symbol id="icon-company-logo" viewBox="0 0 75 32">
      <path d="M13.131 2.542c.332.165.705.638.955.918 2.148 2.4 3.275 5.457 3.076 8.674-.193 3.114-1.731 5.879-4.039 7.922-.437-.299-.837-.724-1.187-1.119-1.961-2.218-3.035-5.333-2.848-8.289.193-3.047 1.751-6.097 4.042-8.106z"/>
      <path d="M22.274 6.9c.006.011.014.021.019.032.122.249.158.644.189.92.162 1.437.028 2.878-.478 4.239-1.263 3.4-4.182 5.902-7.409 7.385-.038 0-.013.003-.071-.031.197-.323.472-.611.7-.914.348-.473.663-.97.944-1.485.989-1.819 1.461-3.82 1.46-5.883 0-.586-.014-1.171-.183-1.737.303-.336.674-.619 1.034-.891 1.16-.878 2.329-1.489 3.796-1.635zm-18.327.014c.174.007.35.029.522.056 1.326.202 2.486.908 3.521 1.725.289.228.605.466.823.765-.551 2.829.18 5.795 1.642 8.242.234.389.486.766.756 1.131.129.174.283.331.398.514l-.041.053c-2.412-1.031-4.671-2.857-6.125-5.038-1.525-2.289-2.029-4.754-1.498-7.447z"/>
      <path d="M24.633 13.227c.385-.046 1.246-.094 1.569.111.016.048.021.053.023.112.006.226-.141.563-.217.774a8.993 8.993 0 0 1-2.543 3.766c-2.263 2.001-5.196 2.719-8.159 2.528-.56-.058-1.136-.097-1.674-.269 2.482-.763 4.843-2.323 6.554-4.271.421-.479.729-1.035 1.138-1.516.777-.914 2.185-1.156 3.311-1.235zm-23.711.076c1.157-.136 2.726.054 3.679.774.566.428.908 1.223 1.376 1.765a14.636 14.636 0 0 0 5.359 3.907c.439.188.891.384 1.355.498l-.928.155c-2.702.389-5.503-.094-7.815-1.597-1.575-1.024-2.683-2.428-3.335-4.18-.096-.257-.239-.536-.288-.803a.463.463 0 0 1 .088-.392c.145-.107.334-.106.509-.127zm47.195-2.335c.901-.007 1.883-.088 2.773.042.572.083 1.154.288 1.502.779.256.361.34.869.26 1.3-.097.528-.432.834-.856 1.118.102.043.202.09.299.142.375.203.64.554.749.964.15.56.03 1.136-.249 1.633a1.502 1.502 0 0 1-.22.258c-.855.811-2.729.654-3.833.643-.213-.002-.493.017-.651-.144a.53.53 0 0 1-.059-.226c-.073-1.186-.007-2.417-.007-3.608 0-.843-.085-1.94.025-2.755.085-.106.139-.106.267-.145zm3.018 4.172c-.477-.311-1.28-.221-1.834-.22l.002 1.537c.614.004 1.331.099 1.875-.23.128-.189.257-.47.22-.705a.54.54 0 0 0-.262-.382zm-.228-2.734c-.455-.274-1.094-.204-1.606-.201v1.476c.549.004 1.204.085 1.684-.225.129-.185.254-.45.205-.683-.036-.171-.137-.279-.283-.366zm-11.187.159a1.53 1.53 0 0 1 .411.022c.412.083.613.386.833.709.013-.113.021-.235.048-.345a.345.345 0 0 1 .194-.241c.166-.089.524-.094.698-.03.127.047.269.158.312.291.13.394.079 4.247.004 4.774-.049.347-.157.69-.332.994-.282.491-.763.811-1.303.957-.761.206-1.627.14-2.306-.269-.303-.182-.445-.417-.525-.755.026-.122.056-.241.161-.32.34-.257 1.075.174 1.453.245.325.06.676.027.946-.177.446-.336.519-.957.595-1.47-.298.319-.582.575-1.022.683a1.797 1.797 0 0 1-1.409-.235c-.54-.358-.841-.972-.951-1.595-.135-.759-.017-1.666.443-2.301.439-.605 1.042-.828 1.751-.937zm.081 1.162c-.355.134-.551.298-.703.652-.187.435-.193 1.065-.01 1.501.097.23.291.472.535.555.161.054.356.031.522.019.292-.104.459-.228.597-.511.213-.436.22-1.051.057-1.506-.094-.265-.281-.525-.546-.639a1.057 1.057 0 0 0-.452-.07zm29.402-1.121c.349-.046.692-.031 1.021.106.455.188.691.531.871.969.092-.231.194-.464.357-.656.258-.304.596-.425.988-.44.451-.017.913.086 1.244.41.217.213.351.498.424.791.194.778.085 2.451.088 3.331 0 .135.017.56-.088.64-.179.135-.814.105-1.037.074-.13-.018-.211-.088-.265-.207-.083-.182-.038-.507-.036-.708.009-.653.169-2.456-.217-2.932a.502.502 0 0 0-.356-.188c-.208-.015-.472.057-.624.205-.535.524-.358 2.389-.353 3.122.001.148.007.31-.012.457-.008.065-.031.14-.09.174-.228.131-.783.111-1.035.052-.131-.031-.187-.075-.234-.202-.078-.211-.034-.523-.03-.746.012-.654.167-2.28-.166-2.77a.619.619 0 0 0-.423-.265c-.199-.032-.406-.006-.568.122-.651.514-.473 2.314-.47 3.058.001.179.037.435-.004.602-.017.07-.037.112-.097.152-.209.137-.776.108-1.027.058-.105-.021-.172-.085-.218-.181-.064-.136-.083-4.047-.059-4.435a.841.841 0 0 1 .078-.32.495.495 0 0 1 .301-.248c.31-.1.696.011.97.163.066.244.019.564.008.819l.098-.194c.242-.467.469-.657.962-.814zm-5.629.021a2.633 2.633 0 1 1 .11 5.264 2.633 2.633 0 0 1-.11-5.264zm-.177 1.144c-.387.172-.597.369-.747.774-.179.484-.15 1.159.079 1.621.124.249.316.451.583.54a.954.954 0 0 0 .542.027c.371-.155.593-.353.746-.733.191-.477.189-1.114-.03-1.581a1.148 1.148 0 0 0-.695-.626c-.153-.045-.319-.035-.477-.021zm-28.993-1.137a2.63 2.63 0 0 1 .245 5.256 2.63 2.63 0 1 1-.245-5.256zm.41 1.172a1.136 1.136 0 0 0-.515-.035c-.388.192-.61.392-.759.817-.168.481-.143 1.167.099 1.618.132.246.331.426.601.509.165.051.353.055.521.015.37-.154.587-.353.736-.733a2.14 2.14 0 0 0-.045-1.587 1.115 1.115 0 0 0-.638-.604zm22.864-1.143a2.63 2.63 0 0 1 2.864 3.564 2.63 2.63 0 1 1-2.864-3.565zm.214 1.106c-.39.166-.614.354-.772.758-.185.473-.167 1.129.052 1.589.132.277.357.505.654.6.149.048.317.047.471.028.389-.164.615-.348.776-.752.187-.469.184-1.117-.034-1.575a1.152 1.152 0 0 0-.638-.604 1.233 1.233 0 0 0-.509-.043zm-13.356-1.16c.329-.039.646-.033.971.043.492.114.905.4 1.156.842.134.236.212.496.249.765.057.415.09 3.039-.004 3.4a.424.424 0 0 1-.282.164c-.21.045-.672.072-.842-.086-.149-.137-.118-.424-.12-.609-.247.365-.495.659-.944.771-.501.125-.966-.022-1.398-.271-.184-.169-.324-.343-.403-.583-.133-.406-.09-.953.117-1.326.504-.906 1.69-.852 2.558-1.108l.054-.016c-.035-.108-.069-.219-.114-.324-.491-1.132-1.715.105-2.307-.207a.491.491 0 0 1-.236-.319c-.041-.172.006-.283.1-.426.318-.485.914-.607 1.444-.708zm1.055 3.025c-.361.099-1.038.208-1.253.536a.406.406 0 0 0-.03.365c.032.083.095.156.15.224.373.025.607-.002.892-.261.173-.158.331-.411.323-.655-.002-.061-.019-.122-.033-.181l-.049-.028zm-15.77-2.051c.129-.411 1.135-2.375 1.455-2.559.166-.096 1.055-.11 1.233-.029.114.052.127.083.179.19-.091.509-1.215 2.215-1.547 2.772l-.584.971c.002.584.105 2.365-.099 2.788a.49.49 0 0 1-.211.106c-.274.064-.82.045-1.061-.107-.187-.246-.089-2.291-.089-2.744-.299-.477-2.225-3.553-2.174-3.847.064-.092.105-.114.208-.155.325-.01.986-.096 1.255.067.349.212 1.307 2.115 1.436 2.547zm23.856-2.615c.341-.009.898-.094 1.193.082.083.561.05 1.156.052 1.722l.003 2.622c0 .685.075 1.509-.013 2.181-.017.134-.1.177-.197.254-.355.012-.901.1-1.193-.131-.069-.262-.112-6.316-.046-6.555.032-.113.106-.126.202-.175zM13.27 20.431c.47.167.943.301 1.436.381.85.138 1.837.097 2.6.54.564.327 1.141 1.092 1.3 1.727.029.116.021.126-.039.223-.59.213-1.163.162-1.75-.03-1.414-.462-2.856-1.493-3.548-2.841zm-.266.003c.03-.003.058.013.087.021-.002.013-.001.027-.004.041-.073.301-1.237 1.528-1.506 1.741-.929.733-2.308 1.316-3.507 1.173-.032-.007-.077-.016-.106-.029-.065-.03-.105-.054-.122-.123-.045-.187.061-.405.146-.568.275-.525.704-1.141 1.243-1.424.664-.349 1.644-.348 2.382-.479a11.77 11.77 0 0 0 1.386-.352z"/>
    </symbol>
    <symbol id="icon-facebook" viewBox="0 0 32 32">
      <path d="M28.8 16.507c0-7.113-5.731-12.878-12.8-12.878S3.2 9.395 3.2 16.507c0 6.428 4.681 11.756 10.8 12.722V20.23h-3.25v-3.723H14V13.67c0-3.228 1.911-5.01 4.835-5.01 1.401 0 2.865.252 2.865.252v3.169h-1.614c-1.59 0-2.086.993-2.086 2.011v2.416h3.55l-.567 3.723H18v8.999c6.119-.966 10.8-6.294 10.8-12.722z"/>
    </symbol>
    <symbol id="icon-instagram" viewBox="0 0 32 32">
      <path d="M21.12 4.909H10.88a6.4 6.4 0 0 0-6.4 6.4v10.24a6.4 6.4 0 0 0 6.4 6.4h10.24a6.4 6.4 0 0 0 6.4-6.4v-10.24a6.4 6.4 0 0 0-6.4-6.4zm4.16 16.64a4.172 4.172 0 0 1-4.16 4.16H10.88a4.172 4.172 0 0 1-4.16-4.16v-10.24a4.172 4.172 0 0 1 4.16-4.16h10.24a4.172 4.172 0 0 1 4.16 4.16v10.24zm-3.2-9.92a1.28 1.28 0 1 1 0-2.56 1.28 1.28 0 0 1 0 2.56zm-6.08-.96a5.749 5.749 0 0 1 5.76 5.76 5.76 5.76 0 1 1-5.76-5.76zm-3.52 5.76a3.52 3.52 0 1 0 7.04 0 3.52 3.52 0 0 0-7.04 0z"/>
    </symbol>
    <symbol id="icon-linkedin" viewBox="0 0 32 32">
      <path d="M6.4 4.909h19.2c1.06 0 1.92.86 1.92 1.92v19.2c0 1.06-.86 1.92-1.92 1.92H6.4a1.92 1.92 0 0 1-1.92-1.92v-19.2c0-1.06.86-1.92 1.92-1.92zm5.147 5.123c.007-1.073-.81-1.899-1.937-1.924a1.911 1.911 0 0 0-1.971 1.926c-.005 1.15.887 1.966 1.912 1.971 1.087.005 2.003-.749 1.996-1.973zm4.811 3.532h-3.227v10.957h3.409v-.256l-.001-1.459c-.001-1.298-.002-2.597.004-3.894.002-.315.016-.643.097-.943.304-1.123 1.314-1.849 2.441-1.67.724.113 1.202.533 1.404 1.215.124.427.18.886.185 1.33.015 1.341.013 2.682.011 4.023l-.002 1.42v.232h3.42v-.263l-.001-1.735c-.001-1.446-.001-2.892.002-4.338a7.692 7.692 0 0 0-.229-1.93c-.239-.94-.734-1.717-1.539-2.279-.571-.4-1.197-.657-1.897-.686l-.241-.012c-.358-.019-.722-.039-1.064.03-.979.196-1.84.644-2.489 1.435-.076.091-.149.183-.26.32l-.025.031v-1.528zm-8.446 10.96h3.393V13.571H7.912v10.953z"/>
    </symbol>
    <symbol id="icon-menu" viewBox="0 0 32 32">
      <path d="M5.333 8h21.333v2.667H5.333V8zm0 6.667h21.333v2.667H5.333v-2.667zm0 6.666h21.333V24H5.333v-2.667z"/>
    </symbol>
    <symbol id="icon-close" viewBox="0 0 32 32">
      <path d="m21.589 8.459-5.657 5.656-5.656-5.656-1.885 1.885L14.047 16l-5.656 5.656 1.885 1.885 5.656-5.656 5.657 5.656 1.885-1.885L17.818 16l5.656-5.656-1.885-1.885z"/>
    </symbol>
    <symbol id="icon-youtube" viewBox="0 0 32 32">
      <path d="M28.279 9.978a3.199 3.199 0 0 0-2.255-2.261C24.02 7.167 16 7.158 16 7.158s-8.018-.009-10.024.517A3.272 3.272 0 0 0 3.715 9.95c-.529 2.004-.534 6.162-.534 6.162s-.005 4.178.52 6.162a3.204 3.204 0 0 0 2.257 2.259c2.025.55 10.022.559 10.022.559s8.019.009 10.024-.516a3.221 3.221 0 0 0 2.262-2.257c.53-2.003.534-6.159.534-6.159s.026-4.179-.521-6.184zm-14.844 9.987.006-7.68 6.665 3.846-6.671 3.834z"/>
    </symbol>
  </defs>
</svg>