<svg width="40" height="33" viewBox="0 0 40 33" fill="none" xmlns="http://www.w3.org/2000/svg">
<path d="M19.6963 0.813202C20.1939 1.06035 20.7534 1.77008 21.129 2.18974C24.3516 5.78967 26.042 10.3747 25.743 15.2012C25.4536 19.8717 23.147 24.0189 19.685 27.0841C19.0294 26.6359 18.4295 25.9981 17.9051 25.405C14.964 22.0788 13.352 17.4055 13.6328 12.9718C13.9224 8.40064 16.259 3.82668 19.6963 0.813202Z" fill="#0D0B0A"/>
<path d="M33.4109 7.35022C33.4204 7.36639 33.4313 7.38192 33.4395 7.3988C33.623 7.77228 33.676 8.36484 33.7225 8.77937C33.9648 10.9351 33.7643 13.0964 33.0062 15.1375C31.112 20.2368 26.7337 23.9904 21.8929 26.2156C21.8359 26.215 21.8741 26.2195 21.7871 26.1689C22.0829 25.685 22.4954 25.2524 22.8367 24.7977C23.3588 24.0878 23.8319 23.3434 24.2525 22.5698C25.7354 19.8412 26.4445 16.8404 26.4423 13.7456C26.4417 12.8667 26.4215 11.9887 26.1673 11.1405C26.6212 10.6366 27.1775 10.212 27.7174 9.80335C29.4576 8.48644 31.2109 7.56995 33.4109 7.35022Z" fill="#0D0B0A"/>
<path d="M5.92046 7.37158C6.1817 7.38165 6.44528 7.41556 6.70366 7.45485C8.69218 7.7574 10.4321 8.81632 11.9855 10.0418C12.419 10.3839 12.8934 10.7405 13.2198 11.19C12.3939 15.4334 13.4893 19.8828 15.6835 23.5526C16.0339 24.1358 16.4124 24.7016 16.8178 25.2485C17.0114 25.5089 17.2418 25.7454 17.4153 26.0188L17.3539 26.0987C13.7361 24.5515 10.347 21.8138 8.16685 18.5415C5.87961 15.1082 5.1233 11.4099 5.92046 7.37158Z" fill="#0D0B0A"/>
<path d="M36.9499 16.841C37.5267 16.7722 38.8195 16.6994 39.303 17.0073C39.3274 17.08 39.3347 17.0872 39.3372 17.1755C39.3469 17.5139 39.1257 18.0206 39.0112 18.3362C38.2439 20.5147 36.9303 22.4601 35.1962 23.9858C31.8017 26.9873 27.4016 28.0642 22.9579 27.7784C22.1185 27.6907 21.2533 27.6322 20.4465 27.375C24.1697 26.2299 27.7112 23.8903 30.2773 20.9688C30.908 20.2504 31.3705 19.4164 31.9842 18.6941C33.1491 17.323 35.2611 16.9605 36.9499 16.841Z" fill="#0D0B0A"/>
<path d="M1.38245 16.9547C3.11746 16.7501 5.47173 17.0359 6.90082 18.116C7.75047 18.7584 8.26249 19.9509 8.96469 20.7629C11.1606 23.3057 13.9109 25.3108 17.0037 26.6235C17.6623 26.9054 18.3403 27.1997 19.0367 27.3711L17.6446 27.6037C13.591 28.1869 9.39039 27.4627 5.92199 25.2076C3.56005 23.6714 1.897 21.565 0.919272 18.9377C0.775727 18.5525 0.560863 18.1342 0.487467 17.7328C0.444598 17.4983 0.482336 17.3438 0.619321 17.145C0.837366 16.9846 1.12082 16.9865 1.38245 16.9547Z" fill="#0D0B0A"/>
<path d="M19.9053 27.6459C20.6105 27.8966 21.3201 28.0973 22.0599 28.2175C23.3344 28.424 24.815 28.3636 25.9601 29.0274C26.8056 29.5178 27.6715 30.6662 27.9106 31.6184C27.9543 31.7931 27.9417 31.8074 27.8522 31.9522C26.9672 32.2711 26.1077 32.1952 25.227 31.9068C23.1058 31.2131 20.9435 29.6672 19.9053 27.6459Z" fill="#0D0B0A"/>
<path d="M19.5063 27.6511C19.5511 27.6472 19.594 27.6706 19.6373 27.6829C19.635 27.703 19.6354 27.7238 19.6306 27.7439C19.5217 28.1954 17.7754 30.0361 17.3722 30.355C15.9787 31.4553 13.9098 32.329 12.1122 32.114C12.0641 32.1036 11.9973 32.0906 11.9536 32.0704C11.8568 32.0256 11.7955 31.9899 11.7699 31.8853C11.7018 31.6041 11.8616 31.278 11.9895 31.0338C12.4013 30.2466 13.0461 29.3229 13.854 28.8975C14.8498 28.374 16.3202 28.3759 17.4269 28.1791C18.1358 28.0531 18.819 27.8609 19.5063 27.6511Z" fill="#0D0B0A"/>
</svg>
